<svg xmlns="http://www.w3.org/2000/svg" xmlns:xlink="http://www.w3.org/1999/xlink"><defs><symbol viewBox="0 0 18 18" id="arrow_forward"><path d="M9 .984L17.016 9 9 17.016l-1.406-1.407 5.578-5.625H.984V8.016h12.188L7.594 2.39 9 .984z" /><defs></defs></symbol><linearGradient id="arrow_forward_paint0_linear" x1="9" y1="-13" x2="9" y2="31" gradientUnits="userSpaceOnUse"><stop stop-color="#BC9CFF" /><stop offset="1" stop-color="#8BA4F9" /></linearGradient><symbol viewBox="0 0 10 10" id="checkbox-tick"><path d="M1.464 4.292l4.243 4.243L4.293 9.95.05 5.707l1.414-1.415z" /><path d="M8.535 2.878L9.95 4.292 4.293 9.95 2.879 8.535l5.656-5.657z" /><defs></defs></symbol><linearGradient id="checkbox-tick_paint0_linear" x1="7.828" y1="2.171" x2="2.171" y2="7.828" gradientUnits="userSpaceOnUse"><stop stop-color="#BC9CFF" /><stop offset="1" stop-color="#8BA4F9" /></linearGradient><linearGradient id="checkbox-tick_paint1_linear" x1="7.828" y1="2.171" x2="2.171" y2="7.828" gradientUnits="userSpaceOnUse"><stop stop-color="#BC9CFF" /><stop offset="1" stop-color="#8BA4F9" /></linearGradient><symbol viewBox="0 0 8 13" id="expand-more"><path d="M.578 1.905L1.984.5l6 6-6 6-1.406-1.406 4.594-4.594L.578 1.905z" /></symbol><symbol viewBox="0 0 36 38" id="icon-city"><path d="M31.969 26v-4.031H28.03V26h3.938zm0 7.969V30.03H28.03v3.938h3.938zm-12-24V6.03H16.03V9.97h3.938zm0 8.062V14H16.03v4.031h3.938zm0 7.969v-4.031H16.03V26h3.938zm0 7.969V30.03H16.03v3.938h3.938zm-12-15.938V14H4.03v4.031H7.97zm0 7.969v-4.031H4.03V26H7.97zm0 7.969V30.03H4.03v3.938H7.97zM24 18.03h12V38H0V9.969h12V6.03l6-6 6 6v12z" /><defs></defs></symbol><linearGradient id="icon-city_paint0_linear" x1="18" y1="-4" x2="18" y2="44" gradientUnits="userSpaceOnUse"><stop stop-color="#BC9CFF" /><stop offset="1" stop-color="#8BA4F9" /></linearGradient><symbol viewBox="0 0 10 8" id="icon-favorite"><path d="M4.93 7.887l-.605-.547A80.924 80.924 0 012.82 5.953c-.313-.3-.664-.67-1.055-1.113-.377-.443-.638-.84-.781-1.192A3.021 3.021 0 01.77 2.535c0-.638.215-1.178.645-1.62.442-.444.99-.665 1.64-.665.755 0 1.38.293 1.875.879C5.425.543 6.05.25 6.805.25c.651 0 1.192.221 1.621.664.443.443.664.983.664 1.621 0 .508-.169 1.035-.507 1.582a7.84 7.84 0 01-1.114 1.426c-.39.404-1.035 1.01-1.933 1.816l-.606.528z" /></symbol><symbol viewBox="0 0 34 43" id="icon-fire"><path d="M16.438 36.969c2.687 0 4.937-.907 6.75-2.719C25.063 32.375 26 30.094 26 27.406c0-2.75-.375-5.437-1.125-8.062-1.938 2.562-5.031 4.281-9.281 5.156-3.75.813-5.625 2.875-5.625 6.188 0 1.75.625 3.25 1.875 4.5 1.25 1.187 2.781 1.78 4.594 1.78zM20 .312c4 3.25 7.156 7.22 9.469 11.907 2.375 4.625 3.562 9.562 3.562 14.812 0 4.375-1.562 8.125-4.687 11.25S21.437 42.97 17 42.97c-4.438 0-8.219-1.563-11.344-4.688S.97 31.406.97 27.031c0-6.75 2.156-12.687 6.468-17.812v.75c0 2.062.688 3.812 2.063 5.25 1.375 1.437 3.094 2.156 5.156 2.156 2 0 3.625-.688 4.875-2.063 1.313-1.437 1.969-3.218 1.969-5.343 0-1.25-.125-2.688-.375-4.313-.25-1.625-.5-2.906-.75-3.843L20 .313z" /><defs></defs></symbol><linearGradient id="icon-fire_paint0_linear" x1="17" y1="-1" x2="17" y2="47" gradientUnits="userSpaceOnUse"><stop stop-color="#BC9CFF" /><stop offset="1" stop-color="#8BA4F9" /></linearGradient><symbol viewBox="0 0 10 8" id="icon-heart"><path d="M5.04 6.734c.624-.56 1.086-.983 1.386-1.27.3-.286.625-.624.976-1.015.352-.39.593-.735.723-1.035.143-.3.215-.592.215-.879A1.37 1.37 0 007.91 1.5c-.273-.273-.618-.41-1.035-.41a1.68 1.68 0 00-.918.273 1.415 1.415 0 00-.566.703h-.782c-.104-.286-.3-.52-.586-.703a1.586 1.586 0 00-.898-.273 1.47 1.47 0 00-1.055.41c-.273.273-.41.618-.41 1.035 0 .287.065.58.195.88.144.299.391.644.743 1.034.351.39.677.73.976 1.016.3.286.762.71 1.387 1.27L5 6.772l.04-.039zM6.874.25c.651 0 1.191.221 1.621.664.443.443.664.983.664 1.621 0 .378-.071.749-.215 1.113-.143.352-.41.75-.8 1.192-.378.443-.723.814-1.036 1.113-.312.3-.813.762-1.504 1.387L5 7.887l-.605-.528A55.478 55.478 0 012.44 5.543a8.39 8.39 0 01-1.093-1.426C1.009 3.57.84 3.043.84 2.535c0-.638.215-1.178.644-1.62C1.927.47 2.474.25 3.125.25c.755 0 1.38.293 1.875.879C5.495.543 6.12.25 6.875.25z" /></symbol><symbol viewBox="0 0 40 40" id="icon-smile"><path d="M26.188 29.094c-1.813 1.25-3.875 1.875-6.188 1.875-2.313 0-4.406-.625-6.281-1.875-1.813-1.313-3.125-3-3.938-5.063H30.22c-.813 2.063-2.157 3.75-4.032 5.063zM15.03 17.187c-.562.563-1.25.844-2.062.844-.813 0-1.531-.281-2.156-.843-.563-.625-.844-1.344-.844-2.157 0-.812.281-1.5.844-2.062.624-.625 1.343-.938 2.156-.938.812 0 1.5.313 2.062.938.625.562.938 1.25.938 2.062 0 .813-.313 1.531-.938 2.156zm14.063 0c-.563.563-1.25.844-2.063.844-.812 0-1.531-.281-2.156-.843-.563-.625-.844-1.344-.844-2.157 0-.812.282-1.5.844-2.062.625-.625 1.344-.938 2.156-.938.813 0 1.5.313 2.063.938.625.562.937 1.25.937 2.062 0 .813-.312 1.531-.937 2.156zM8.656 31.345C11.844 34.469 15.625 36.03 20 36.03c4.375 0 8.125-1.562 11.25-4.687 3.188-3.188 4.781-6.969 4.781-11.344 0-4.375-1.593-8.125-4.781-11.25C28.125 5.562 24.375 3.969 20 3.969S11.844 5.563 8.656 8.75C5.531 11.875 3.97 15.625 3.97 20s1.562 8.156 4.687 11.344zM5.844 5.937C9.78 2 14.5.032 20 .032S30.188 2 34.063 5.938C38 9.813 39.968 14.5 39.968 20S38 30.219 34.062 34.156C30.189 38.031 25.5 39.97 20 39.97S9.781 38.03 5.844 34.156C1.969 30.22.03 25.5.03 20S1.97 9.812 5.844 5.937z" /><defs></defs></symbol><linearGradient id="icon-smile_paint0_linear" x1="20" y1="-4" x2="20" y2="44" gradientUnits="userSpaceOnUse"><stop stop-color="#BC9CFF" /><stop offset="1" stop-color="#8BA4F9" /></linearGradient><symbol viewBox="0 0 20 19" id="icon-star"><path d="M10 15.25L3.812 19l1.641-7.031L.016 7.234l7.171-.609L10 .015l2.813 6.61 7.171.61-5.437 4.734L16.187 19 10 15.25z" /><defs></defs></symbol><linearGradient id="icon-star_paint0_linear" x1="10" y1="-2" x2="10" y2="22" gradientUnits="userSpaceOnUse"><stop stop-color="#BC9CFF" /><stop offset="1" stop-color="#8BA4F9" /></linearGradient><symbol viewBox="0 0 22 22" id="logo-facebook"><path d="M19.25.5a2.17 2.17 0 011.594.656c.437.438.656.969.656 1.594v16.5a2.17 2.17 0 01-.656 1.594 2.17 2.17 0 01-1.594.656h-6.422v-7.125h2.719L16.062 11h-3.234V8.797c0-1.188.625-1.781 1.875-1.781h1.453v-2.86a14.647 14.647 0 00-2.578-.234c-.906 0-1.687.172-2.344.515-.625.344-1.125.86-1.5 1.547-.375.688-.562 1.5-.562 2.438V11H6.219v3.375h2.953V21.5H2.75a2.17 2.17 0 01-1.594-.656A2.17 2.17 0 01.5 19.25V2.75c0-.625.219-1.156.656-1.594A2.17 2.17 0 012.75.5h16.5z" /><defs></defs></symbol><linearGradient id="logo-facebook_paint0_linear" x1="11" y1="1" x2="11" y2="25" gradientUnits="userSpaceOnUse"><stop stop-color="#BC9CFF" /><stop offset="1" stop-color="#8BA4F9" /></linearGradient><symbol viewBox="0 0 22 22" id="logo-instagram"><path d="M7.203 7.203C8.266 6.141 9.547 5.61 11.047 5.61s2.765.532 3.797 1.594C15.906 8.234 16.438 9.5 16.438 11s-.532 2.781-1.594 3.844c-1.031 1.031-2.297 1.547-3.797 1.547s-2.781-.516-3.844-1.547C6.172 13.78 5.656 12.5 5.656 11s.516-2.766 1.547-3.797zm1.36 6.281a3.386 3.386 0 002.484 1.032c.969 0 1.797-.344 2.484-1.032A3.386 3.386 0 0014.562 11c0-.969-.343-1.797-1.03-2.484a3.386 3.386 0 00-2.485-1.032c-.969 0-1.797.344-2.485 1.032A3.386 3.386 0 007.532 11c0 .969.343 1.797 1.03 2.484zm8.953-8.953c.25.219.375.5.375.844s-.125.64-.375.89c-.22.25-.5.376-.844.376s-.64-.125-.89-.375a1.217 1.217 0 01-.376-.891c0-.344.125-.625.375-.844.25-.25.547-.375.89-.375.345 0 .626.125.845.375zM21.5 6.688c.031.843.047 2.28.047 4.312 0 2.031-.016 3.469-.047 4.313-.094 1.906-.672 3.39-1.734 4.453-1.032 1.03-2.5 1.578-4.407 1.64-.843.063-2.28.094-4.312.094-2.031 0-3.469-.031-4.313-.094-1.906-.093-3.375-.656-4.406-1.687a4.524 4.524 0 01-.984-1.313c-.25-.5-.438-.984-.563-1.453a8.448 8.448 0 01-.14-1.64C.578 14.469.547 13.03.547 11c0-2.031.031-3.484.094-4.36.093-1.874.656-3.327 1.687-4.359C3.36 1.22 4.828.641 6.734.547 7.578.516 9.016.5 11.047.5c2.031 0 3.469.016 4.312.047 1.907.094 3.375.672 4.407 1.734 1.062 1.031 1.64 2.5 1.734 4.406zm-2.25 10.5c.094-.25.172-.563.234-.938.063-.406.11-.875.141-1.406.031-.563.047-1.016.047-1.36v-1.453V11 9.969 8.516c0-.344-.016-.782-.047-1.313a13.252 13.252 0 00-.14-1.406 5.075 5.075 0 00-.235-.984c-.375-.97-1.047-1.641-2.016-2.016a5.08 5.08 0 00-.984-.235c-.375-.062-.844-.109-1.406-.14a23.159 23.159 0 00-1.313-.047H8.562c-.343 0-.796.016-1.359.047-.531.031-1 .078-1.406.14-.375.063-.688.141-.938.235-.968.375-1.64 1.047-2.015 2.015a5.08 5.08 0 00-.235.985c-.062.375-.109.844-.14 1.406-.031.531-.047.969-.047 1.313v5.625c.031.468.062.875.094 1.218a12.434 12.434 0 00.328 1.829c.406.968 1.078 1.64 2.015 2.015.25.094.563.172.938.235.406.062.875.109 1.406.14.563.031 1 .047 1.313.047H13.53c.344 0 .781-.016 1.313-.047a13.254 13.254 0 001.406-.14c.406-.063.734-.141.984-.235.97-.406 1.641-1.078 2.016-2.015z" /><defs></defs></symbol><linearGradient id="logo-instagram_paint0_linear" x1="11" y1="1" x2="11" y2="25" gradientUnits="userSpaceOnUse"><stop stop-color="#BC9CFF" /><stop offset="1" stop-color="#8BA4F9" /></linearGradient><symbol viewBox="0 0 48 48" id="logo-toxin"><path d="M23.999 32.471a1.416 1.416 0 01-1.412-1.412c0-5.435-4.447-9.882-9.882-9.882a1.416 1.416 0 01-1.412-1.412c0-.776.635-1.412 1.412-1.412 7.023 0 12.706 5.683 12.706 12.706 0 .777-.636 1.412-1.412 1.412zM36.707 19.765c0 .777-.636 1.412-1.412 1.412a9.851 9.851 0 00-8.118 4.27 14.448 14.448 0 00-1.411-2.752 12.588 12.588 0 019.529-4.341c.776 0 1.412.635 1.412 1.411z" /><path d="M24 48C10.765 48 0 37.235 0 24S10.765 0 24 0s24 10.765 24 24-10.765 24-24 24zm0-45.176C12.318 2.824 2.824 12.318 2.824 24c0 11.682 9.494 21.176 21.176 21.176 11.682 0 21.176-9.494 21.176-21.176 0-11.682-9.494-21.176-21.176-21.176z" /></symbol><symbol viewBox="0 0 24 20" id="logo-twitter"><path d="M21.516 5.125c.03.125.047.328.047.61 0 2.25-.547 4.421-1.641 6.515-1.125 2.219-2.703 3.984-4.735 5.297-2.218 1.469-4.765 2.203-7.64 2.203-2.75 0-5.266-.734-7.547-2.203.344.031.734.047 1.172.047 2.281 0 4.328-.703 6.14-2.11-1.093 0-2.062-.312-2.906-.937a5.085 5.085 0 01-1.687-2.438c.312.032.61.047.89.047.438 0 .875-.047 1.313-.14-1.125-.25-2.063-.829-2.813-1.735C1.36 9.375.984 8.344.984 7.187v-.093a4.634 4.634 0 002.204.656 5.46 5.46 0 01-1.594-1.781 4.683 4.683 0 01-.61-2.344c0-.875.235-1.703.704-2.484A13.646 13.646 0 006.14 4.797a13.794 13.794 0 005.671 1.5 6.832 6.832 0 01-.093-1.125c0-.875.219-1.688.656-2.438A4.77 4.77 0 0114.156.906 4.754 4.754 0 0116.594.25c.718 0 1.375.14 1.968.422a5.473 5.473 0 011.641 1.125 10.015 10.015 0 003.14-1.172c-.374 1.156-1.093 2.063-2.155 2.719.937-.125 1.875-.39 2.812-.797-.688 1-1.516 1.86-2.484 2.578z" /><defs></defs></symbol><linearGradient id="logo-twitter_paint0_linear" x1="12" y1="-2" x2="12" y2="22" gradientUnits="userSpaceOnUse"><stop stop-color="#BC9CFF" /><stop offset="1" stop-color="#8BA4F9" /></linearGradient></defs></svg>