<svg xmlns="http://www.w3.org/2000/svg" xmlns:xlink="http://www.w3.org/1999/xlink"><defs><symbol viewBox="0 0 18 18" id="arrow_forward"><path d="M9 .984L17.016 9 9 17.016l-1.406-1.407 5.578-5.625H.984V8.016h12.188L7.594 2.39 9 .984z" /><defs></defs></symbol><linearGradient id="arrow_forward_paint0_linear" x1="9" y1="-13" x2="9" y2="31" gradientUnits="userSpaceOnUse"><stop stop-color="#BC9CFF" /><stop offset="1" stop-color="#8BA4F9" /></linearGradient><symbol viewBox="0 0 48 48" id="logo-toxin"><path d="M23.999 32.471a1.416 1.416 0 01-1.412-1.412c0-5.435-4.447-9.882-9.882-9.882a1.416 1.416 0 01-1.412-1.412c0-.776.635-1.412 1.412-1.412 7.023 0 12.706 5.683 12.706 12.706 0 .777-.636 1.412-1.412 1.412zM36.707 19.765c0 .777-.636 1.412-1.412 1.412a9.851 9.851 0 00-8.118 4.27 14.448 14.448 0 00-1.411-2.752 12.588 12.588 0 019.529-4.341c.776 0 1.412.635 1.412 1.411z" /><path d="M24 48C10.765 48 0 37.235 0 24S10.765 0 24 0s24 10.765 24 24-10.765 24-24 24zm0-45.176C12.318 2.824 2.824 12.318 2.824 24c0 11.682 9.494 21.176 21.176 21.176 11.682 0 21.176-9.494 21.176-21.176 0-11.682-9.494-21.176-21.176-21.176z" /></symbol></defs></svg>